<mxfile host="Electron" agent="Mozilla/5.0 (Macintosh; Intel Mac OS X 10_15_7) AppleWebKit/537.36 (KHTML, like Gecko) draw.io/27.0.9 Chrome/134.0.6998.205 Electron/35.4.0 Safari/537.36" version="27.0.9">
  <diagram name="main" id="5c5ncPolhK4JM8Jjp64N">
    <mxGraphModel dx="1103" dy="732" grid="1" gridSize="10" guides="1" tooltips="1" connect="1" arrows="1" fold="1" page="1" pageScale="1" pageWidth="1100" pageHeight="850" math="0" shadow="0">
      <root>
        <mxCell id="0" />
        <mxCell id="1" parent="0" />
        <mxCell id="0HyIRbqfKTSCSGBwRbP0-46" style="edgeStyle=orthogonalEdgeStyle;shape=connector;curved=0;rounded=1;jumpStyle=gap;orthogonalLoop=1;jettySize=auto;html=1;exitX=1;exitY=0.5;exitDx=0;exitDy=0;exitPerimeter=0;entryX=1;entryY=0.5;entryDx=0;entryDy=0;entryPerimeter=0;strokeColor=default;strokeWidth=1;align=center;verticalAlign=middle;fontFamily=Helvetica;fontSize=11;fontColor=default;labelBackgroundColor=default;endArrow=classic;" parent="1" source="0HyIRbqfKTSCSGBwRbP0-5" target="0HyIRbqfKTSCSGBwRbP0-44" edge="1">
          <mxGeometry relative="1" as="geometry">
            <Array as="points">
              <mxPoint x="518" y="70" />
            </Array>
          </mxGeometry>
        </mxCell>
        <mxCell id="0HyIRbqfKTSCSGBwRbP0-1" value="Cell" style="rounded=1;whiteSpace=wrap;html=1;sketch=0;container=1;recursiveResize=0;verticalAlign=top;arcSize=6;fontStyle=1;autosize=0;points=[];absoluteArcSize=1;shadow=0;strokeColor=#001DBC;fillColor=#D4E4EF;fontColor=#ffffff;fontFamily=Helvetica;fontSize=11;gradientColor=#0050EF;" parent="1" vertex="1">
          <mxGeometry x="200" y="200" width="130" height="140" as="geometry">
            <mxRectangle x="-98" y="-1230" width="99" height="26" as="alternateBounds" />
          </mxGeometry>
        </mxCell>
        <mxCell id="0HyIRbqfKTSCSGBwRbP0-3" value="#" style="rounded=1;whiteSpace=wrap;html=1;sketch=0;points=[[0,0.5,0,0,0],[1,0.5,0,0,0]];fillColor=#1ba1e2;fontColor=#ffffff;strokeColor=#006EAF;arcSize=50;fontFamily=Helvetica;fontSize=11;textOpacity=30;opacity=30;" parent="0HyIRbqfKTSCSGBwRbP0-1" vertex="1">
          <mxGeometry x="110" y="100" width="35.25" height="25" as="geometry" />
        </mxCell>
        <mxCell id="0HyIRbqfKTSCSGBwRbP0-16" value="display" style="rounded=1;whiteSpace=wrap;html=1;sketch=0;points=[[0,0.5,0,0,0],[1,0.5,0,0,0]];fillColor=#1ba1e2;fontColor=#ffffff;strokeColor=#006EAF;arcSize=50;fontFamily=Helvetica;fontSize=11;rotation=-90;" parent="0HyIRbqfKTSCSGBwRbP0-1" vertex="1">
          <mxGeometry x="12.375" y="129.995" width="35.25" height="25" as="geometry" />
        </mxCell>
        <mxCell id="0HyIRbqfKTSCSGBwRbP0-43" value="edit" style="rounded=1;whiteSpace=wrap;html=1;sketch=0;points=[[0,0.5,0,0,0],[1,0.5,0,0,0]];arcSize=50;fontFamily=Helvetica;fontSize=11;rotation=-90;" parent="0HyIRbqfKTSCSGBwRbP0-1" vertex="1">
          <mxGeometry x="15.245000000000005" y="-14.995000000000005" width="35.25" height="25" as="geometry" />
        </mxCell>
        <mxCell id="0HyIRbqfKTSCSGBwRbP0-20" value="update" style="rounded=1;whiteSpace=wrap;html=1;sketch=0;points=[[0,0.5,0,0,0],[1,0.5,0,0,0]];arcSize=50;fontFamily=Helvetica;fontSize=11;" parent="0HyIRbqfKTSCSGBwRbP0-1" vertex="1">
          <mxGeometry x="110" y="27.5" width="35.25" height="25" as="geometry" />
        </mxCell>
        <mxCell id="0HyIRbqfKTSCSGBwRbP0-4" value="edit" style="rounded=1;whiteSpace=wrap;html=1;sketch=0;points=[[0,0.5,0,0,0],[1,0.5,0,0,0]];fillColor=#1ba1e2;fontColor=#ffffff;strokeColor=#006EAF;arcSize=50;fontFamily=Helvetica;fontSize=11;" parent="0HyIRbqfKTSCSGBwRbP0-1" vertex="1">
          <mxGeometry x="110" y="57.5" width="35.25" height="25" as="geometry" />
        </mxCell>
        <mxCell id="0HyIRbqfKTSCSGBwRbP0-45" style="edgeStyle=orthogonalEdgeStyle;shape=connector;curved=0;rounded=1;orthogonalLoop=1;jettySize=auto;html=1;exitX=1;exitY=0.5;exitDx=0;exitDy=0;exitPerimeter=0;strokeColor=default;align=center;verticalAlign=middle;fontFamily=Helvetica;fontSize=11;fontColor=default;labelBackgroundColor=default;endArrow=classic;strokeWidth=1;jumpStyle=gap;entryX=1;entryY=0.5;entryDx=0;entryDy=0;entryPerimeter=0;" parent="1" source="6UfjwMF2x4XSgTk1smfQ-1" target="0HyIRbqfKTSCSGBwRbP0-43" edge="1">
          <mxGeometry relative="1" as="geometry">
            <Array as="points">
              <mxPoint x="233" y="120" />
            </Array>
          </mxGeometry>
        </mxCell>
        <mxCell id="0HyIRbqfKTSCSGBwRbP0-5" value="edit2" style="rhombus;whiteSpace=wrap;html=1;rounded=1;fontStyle=1;glass=0;sketch=0;fontSize=12;points=[[0,0.5,0,0,0],[0.5,0,0,0,0],[0.5,1,0,0,0],[1,0.5,0,0,0]];shadow=1;fontFamily=Helvetica;fontColor=default;" parent="1" vertex="1">
          <mxGeometry x="40" y="50" width="40" height="40" as="geometry" />
        </mxCell>
        <mxCell id="0HyIRbqfKTSCSGBwRbP0-6" value="#" style="rhombus;whiteSpace=wrap;html=1;rounded=1;fillColor=#0050ef;fontColor=#ffffff;strokeColor=#001DBC;fontStyle=1;glass=0;sketch=0;fontSize=12;points=[[0,0.5,0,0,0],[0.5,0,0,0,0],[0.5,1,0,0,0],[1,0.5,0,0,0]];shadow=1;fontFamily=Helvetica;opacity=30;textOpacity=30;" parent="1" vertex="1">
          <mxGeometry x="720" y="380" width="40" height="40" as="geometry" />
        </mxCell>
        <mxCell id="0HyIRbqfKTSCSGBwRbP0-9" value="Print" style="rounded=1;whiteSpace=wrap;html=1;sketch=0;container=1;recursiveResize=0;verticalAlign=top;arcSize=6;fontStyle=1;autosize=0;points=[];absoluteArcSize=1;shadow=0;strokeColor=#001DBC;fillColor=#D4E4EF;fontColor=#ffffff;fontFamily=Helvetica;fontSize=11;gradientColor=#0050EF;" parent="1" vertex="1">
          <mxGeometry x="200" y="440" width="130" height="110" as="geometry">
            <mxRectangle x="-98" y="-1230" width="99" height="26" as="alternateBounds" />
          </mxGeometry>
        </mxCell>
        <mxCell id="0HyIRbqfKTSCSGBwRbP0-11" value="#" style="rounded=1;whiteSpace=wrap;html=1;sketch=0;points=[[0,0.5,0,0,0],[1,0.5,0,0,0]];fillColor=#1ba1e2;fontColor=#ffffff;strokeColor=#006EAF;arcSize=50;fontFamily=Helvetica;fontSize=11;textOpacity=30;opacity=30;" parent="0HyIRbqfKTSCSGBwRbP0-9" vertex="1">
          <mxGeometry x="110" y="70" width="35.25" height="25" as="geometry" />
        </mxCell>
        <mxCell id="0HyIRbqfKTSCSGBwRbP0-15" value="display" style="rounded=1;whiteSpace=wrap;html=1;sketch=0;points=[[0,0.5,0,0,0],[1,0.5,0,0,0]];arcSize=50;fontFamily=Helvetica;fontSize=11;rotation=-90;" parent="0HyIRbqfKTSCSGBwRbP0-9" vertex="1">
          <mxGeometry x="12.375000000000004" y="-15.004999999999995" width="35.25" height="25" as="geometry" />
        </mxCell>
        <mxCell id="0HyIRbqfKTSCSGBwRbP0-21" style="edgeStyle=orthogonalEdgeStyle;rounded=1;orthogonalLoop=1;jettySize=auto;html=1;exitX=0;exitY=0.5;exitDx=0;exitDy=0;exitPerimeter=0;entryX=1;entryY=0.5;entryDx=0;entryDy=0;entryPerimeter=0;strokeWidth=2;curved=0;" parent="1" source="0HyIRbqfKTSCSGBwRbP0-16" target="0HyIRbqfKTSCSGBwRbP0-15" edge="1">
          <mxGeometry relative="1" as="geometry" />
        </mxCell>
        <mxCell id="0HyIRbqfKTSCSGBwRbP0-23" value="Cell" style="rounded=1;whiteSpace=wrap;html=1;sketch=0;container=1;recursiveResize=0;verticalAlign=top;arcSize=6;fontStyle=1;autosize=0;points=[];absoluteArcSize=1;shadow=0;strokeColor=#001DBC;fillColor=#D4E4EF;fontColor=#ffffff;fontFamily=Helvetica;fontSize=11;gradientColor=#0050EF;" parent="1" vertex="1">
          <mxGeometry x="480" y="200" width="130" height="140" as="geometry">
            <mxRectangle x="-98" y="-1230" width="99" height="26" as="alternateBounds" />
          </mxGeometry>
        </mxCell>
        <mxCell id="0HyIRbqfKTSCSGBwRbP0-27" value="display" style="rounded=1;whiteSpace=wrap;html=1;sketch=0;points=[[0,0.5,0,0,0],[1,0.5,0,0,0]];fillColor=#1ba1e2;fontColor=#ffffff;strokeColor=#006EAF;arcSize=50;fontFamily=Helvetica;fontSize=11;rotation=-90;" parent="0HyIRbqfKTSCSGBwRbP0-23" vertex="1">
          <mxGeometry x="12.365" y="129.995" width="35.25" height="25" as="geometry" />
        </mxCell>
        <mxCell id="0HyIRbqfKTSCSGBwRbP0-44" value="edit" style="rounded=1;whiteSpace=wrap;html=1;sketch=0;points=[[0,0.5,0,0,0],[1,0.5,0,0,0]];arcSize=50;fontFamily=Helvetica;fontSize=11;rotation=-90;" parent="0HyIRbqfKTSCSGBwRbP0-23" vertex="1">
          <mxGeometry x="20.004999999999995" y="-9.995000000000005" width="35.25" height="25" as="geometry" />
        </mxCell>
        <mxCell id="0HyIRbqfKTSCSGBwRbP0-25" value="edit" style="rounded=1;whiteSpace=wrap;html=1;sketch=0;points=[[0,0.5,0,0,0],[1,0.5,0,0,0]];fillColor=#1ba1e2;fontColor=#ffffff;strokeColor=#006EAF;arcSize=50;fontFamily=Helvetica;fontSize=11;" parent="0HyIRbqfKTSCSGBwRbP0-23" vertex="1">
          <mxGeometry x="-15.240000000000009" y="27.5" width="35.25" height="25" as="geometry" />
        </mxCell>
        <mxCell id="0HyIRbqfKTSCSGBwRbP0-26" value="update" style="rounded=1;whiteSpace=wrap;html=1;sketch=0;points=[[0,0.5,0,0,0],[1,0.5,0,0,0]];arcSize=50;fontFamily=Helvetica;fontSize=11;" parent="0HyIRbqfKTSCSGBwRbP0-23" vertex="1">
          <mxGeometry x="-15.240000000000009" y="57.5" width="35.25" height="25" as="geometry" />
        </mxCell>
        <mxCell id="0HyIRbqfKTSCSGBwRbP0-24" value="#" style="rounded=1;whiteSpace=wrap;html=1;sketch=0;points=[[0,0.5,0,0,0],[1,0.5,0,0,0]];fillColor=#1ba1e2;fontColor=#ffffff;strokeColor=#006EAF;arcSize=50;fontFamily=Helvetica;fontSize=11;textOpacity=30;opacity=30;" parent="0HyIRbqfKTSCSGBwRbP0-23" vertex="1">
          <mxGeometry x="110" y="95" width="35.25" height="25" as="geometry" />
        </mxCell>
        <mxCell id="0HyIRbqfKTSCSGBwRbP0-29" value="Print" style="rounded=1;whiteSpace=wrap;html=1;sketch=0;container=1;recursiveResize=0;verticalAlign=top;arcSize=6;fontStyle=1;autosize=0;points=[];absoluteArcSize=1;shadow=0;strokeColor=#001DBC;fillColor=#D4E4EF;fontColor=#ffffff;fontFamily=Helvetica;fontSize=11;gradientColor=#0050EF;" parent="1" vertex="1">
          <mxGeometry x="480" y="440" width="130" height="110" as="geometry">
            <mxRectangle x="-98" y="-1230" width="99" height="26" as="alternateBounds" />
          </mxGeometry>
        </mxCell>
        <mxCell id="0HyIRbqfKTSCSGBwRbP0-30" value="#" style="rounded=1;whiteSpace=wrap;html=1;sketch=0;points=[[0,0.5,0,0,0],[1,0.5,0,0,0]];fillColor=#1ba1e2;fontColor=#ffffff;strokeColor=#006EAF;arcSize=50;fontFamily=Helvetica;fontSize=11;textOpacity=30;opacity=30;" parent="0HyIRbqfKTSCSGBwRbP0-29" vertex="1">
          <mxGeometry x="110" y="70" width="35.25" height="25" as="geometry" />
        </mxCell>
        <mxCell id="0HyIRbqfKTSCSGBwRbP0-32" value="display" style="rounded=1;whiteSpace=wrap;html=1;sketch=0;points=[[0,0.5,0,0,0],[1,0.5,0,0,0]];arcSize=50;fontFamily=Helvetica;fontSize=11;rotation=-90;" parent="0HyIRbqfKTSCSGBwRbP0-29" vertex="1">
          <mxGeometry x="12.375000000000004" y="-15.004999999999995" width="35.25" height="25" as="geometry" />
        </mxCell>
        <mxCell id="0HyIRbqfKTSCSGBwRbP0-33" style="edgeStyle=orthogonalEdgeStyle;rounded=1;orthogonalLoop=1;jettySize=auto;html=1;exitX=0;exitY=0.5;exitDx=0;exitDy=0;exitPerimeter=0;entryX=1;entryY=0.5;entryDx=0;entryDy=0;entryPerimeter=0;strokeWidth=2;curved=0;" parent="1" source="0HyIRbqfKTSCSGBwRbP0-27" target="0HyIRbqfKTSCSGBwRbP0-32" edge="1">
          <mxGeometry relative="1" as="geometry" />
        </mxCell>
        <mxCell id="0HyIRbqfKTSCSGBwRbP0-35" style="edgeStyle=orthogonalEdgeStyle;rounded=1;orthogonalLoop=1;jettySize=auto;html=1;exitX=1;exitY=0.5;exitDx=0;exitDy=0;exitPerimeter=0;entryX=0;entryY=0.5;entryDx=0;entryDy=0;entryPerimeter=0;strokeWidth=2;curved=0;" parent="1" source="0HyIRbqfKTSCSGBwRbP0-4" target="0HyIRbqfKTSCSGBwRbP0-26" edge="1">
          <mxGeometry relative="1" as="geometry" />
        </mxCell>
        <mxCell id="0HyIRbqfKTSCSGBwRbP0-38" style="edgeStyle=orthogonalEdgeStyle;rounded=1;orthogonalLoop=1;jettySize=auto;html=1;exitX=1;exitY=0.5;exitDx=0;exitDy=0;exitPerimeter=0;entryX=0;entryY=0.5;entryDx=0;entryDy=0;entryPerimeter=0;curved=0;dashed=1;dashPattern=1 4;" parent="1" source="0HyIRbqfKTSCSGBwRbP0-24" target="0HyIRbqfKTSCSGBwRbP0-6" edge="1">
          <mxGeometry relative="1" as="geometry" />
        </mxCell>
        <mxCell id="0HyIRbqfKTSCSGBwRbP0-40" style="edgeStyle=orthogonalEdgeStyle;shape=connector;curved=0;rounded=1;orthogonalLoop=1;jettySize=auto;html=1;exitX=1;exitY=0.5;exitDx=0;exitDy=0;exitPerimeter=0;entryX=0;entryY=0.5;entryDx=0;entryDy=0;entryPerimeter=0;dashed=1;dashPattern=1 4;strokeColor=default;align=center;verticalAlign=middle;fontFamily=Helvetica;fontSize=11;fontColor=default;labelBackgroundColor=default;endArrow=classic;" parent="1" source="0HyIRbqfKTSCSGBwRbP0-30" target="0HyIRbqfKTSCSGBwRbP0-6" edge="1">
          <mxGeometry relative="1" as="geometry" />
        </mxCell>
        <mxCell id="0HyIRbqfKTSCSGBwRbP0-41" style="edgeStyle=orthogonalEdgeStyle;shape=connector;curved=0;rounded=1;orthogonalLoop=1;jettySize=auto;html=1;entryX=0;entryY=0.5;entryDx=0;entryDy=0;entryPerimeter=0;dashed=1;dashPattern=1 4;strokeColor=default;align=center;verticalAlign=middle;fontFamily=Helvetica;fontSize=11;fontColor=default;labelBackgroundColor=default;endArrow=classic;" parent="1" source="0HyIRbqfKTSCSGBwRbP0-3" target="0HyIRbqfKTSCSGBwRbP0-6" edge="1">
          <mxGeometry relative="1" as="geometry">
            <Array as="points">
              <mxPoint x="380" y="313" />
              <mxPoint x="380" y="400" />
            </Array>
          </mxGeometry>
        </mxCell>
        <mxCell id="0HyIRbqfKTSCSGBwRbP0-42" style="edgeStyle=orthogonalEdgeStyle;shape=connector;curved=0;rounded=1;orthogonalLoop=1;jettySize=auto;html=1;exitX=1;exitY=0.5;exitDx=0;exitDy=0;exitPerimeter=0;entryX=0;entryY=0.5;entryDx=0;entryDy=0;entryPerimeter=0;dashed=1;dashPattern=1 4;strokeColor=default;align=center;verticalAlign=middle;fontFamily=Helvetica;fontSize=11;fontColor=default;labelBackgroundColor=default;endArrow=classic;" parent="1" source="0HyIRbqfKTSCSGBwRbP0-11" target="0HyIRbqfKTSCSGBwRbP0-6" edge="1">
          <mxGeometry relative="1" as="geometry">
            <Array as="points">
              <mxPoint x="380" y="523" />
              <mxPoint x="380" y="400" />
            </Array>
          </mxGeometry>
        </mxCell>
        <mxCell id="0HyIRbqfKTSCSGBwRbP0-47" style="edgeStyle=orthogonalEdgeStyle;shape=connector;curved=0;rounded=1;jumpStyle=arc;orthogonalLoop=1;jettySize=auto;html=1;exitX=0;exitY=0.5;exitDx=0;exitDy=0;exitPerimeter=0;entryX=1;entryY=0.5;entryDx=0;entryDy=0;entryPerimeter=0;strokeColor=default;strokeWidth=2;align=center;verticalAlign=middle;fontFamily=Helvetica;fontSize=11;fontColor=default;labelBackgroundColor=default;endArrow=classic;" parent="1" source="0HyIRbqfKTSCSGBwRbP0-25" target="0HyIRbqfKTSCSGBwRbP0-20" edge="1">
          <mxGeometry relative="1" as="geometry" />
        </mxCell>
        <mxCell id="6UfjwMF2x4XSgTk1smfQ-1" value="edit1" style="rhombus;whiteSpace=wrap;html=1;rounded=1;fontStyle=1;glass=0;sketch=0;fontSize=12;points=[[0,0.5,0,0,0],[0.5,0,0,0,0],[0.5,1,0,0,0],[1,0.5,0,0,0]];shadow=1;fontFamily=Helvetica;fontColor=default;" vertex="1" parent="1">
          <mxGeometry x="40" y="100" width="40" height="40" as="geometry" />
        </mxCell>
      </root>
    </mxGraphModel>
  </diagram>
</mxfile>
